<svg version="1.1" xmlns="http://www.w3.org/2000/svg" viewBox="0 0 743.6997203362694 350.9029507275509" width="1487.3994406725387" height="701.8059014551018" filter="invert(93%) hue-rotate(180deg)">
  <!-- svg-source:excalidraw -->
  
  <defs>
    <style class="style-fonts">
      @font-face {
        font-family: "Virgil";
        src: url("https://excalidraw.com/Virgil.woff2");
      }
      @font-face {
        font-family: "Cascadia";
        src: url("https://excalidraw.com/Cascadia.woff2");
      }
      @font-face {
        font-family: "Assistant";
        src: url("https://excalidraw.com/Assistant-Regular.woff2");
      }
    </style>
    
  </defs>
  <g stroke-linecap="round" transform="translate(10 118.74733402843322) rotate(0 11.09720625688442 11.09720625688442)"><path d="M13.69 1.18 C16 1.61, 17.92 3.33, 19.46 5.15 C21.01 6.97, 22.98 9.72, 22.98 12.1 C22.98 14.48, 21.29 17.59, 19.45 19.41 C17.61 21.24, 14.28 23.05, 11.93 23.07 C9.57 23.08, 7.38 20.9, 5.34 19.52 C3.31 18.13, 0.4 16.97, -0.29 14.75 C-0.99 12.52, 0.17 8.36, 1.18 6.19 C2.19 4.03, 3.22 2.58, 5.75 1.75 C8.29 0.92, 14.52 0.94, 16.41 1.23 C18.31 1.53, 17.16 3.32, 17.12 3.51 M14.86 0.76 C16.68 1.15, 18.48 3.04, 19.69 4.95 C20.9 6.87, 22.42 9.74, 22.1 12.27 C21.78 14.79, 19.52 18.51, 17.77 20.13 C16.02 21.75, 13.68 22.22, 11.61 21.99 C9.54 21.76, 7.37 20.02, 5.36 18.76 C3.34 17.5, 0.19 16.8, -0.5 14.41 C-1.2 12.02, -0.39 6.93, 1.17 4.41 C2.72 1.89, 6.35 0.02, 8.81 -0.69 C11.28 -1.4, 14.75 0.09, 15.97 0.15 C17.19 0.21, 16.34 -0.58, 16.14 -0.31" stroke="#f08c00" stroke-width="4" fill="none"></path></g><g stroke-linecap="round" transform="translate(107.62775847178114 103.3938600977981) rotate(0 11.09720625688442 11.09720625688442)"><path d="M7.57 0 C9.49 -0.8, 12.51 0.39, 14.64 1.15 C16.76 1.91, 19.08 2.49, 20.31 4.55 C21.53 6.6, 22.19 11.15, 21.99 13.47 C21.79 15.8, 20.81 17.12, 19.12 18.52 C17.44 19.92, 14.29 21.71, 11.87 21.88 C9.46 22.05, 6.48 21.09, 4.65 19.54 C2.82 17.99, 1.37 14.94, 0.89 12.57 C0.4 10.2, 0.46 7.36, 1.77 5.31 C3.08 3.27, 7.49 1.02, 8.74 0.31 C10 -0.4, 9.44 0.98, 9.31 1.07 M13.06 0.53 C15.29 0.45, 17.91 1.16, 19.26 3.01 C20.6 4.87, 21.16 9.2, 21.13 11.67 C21.09 14.15, 20.55 16.04, 19.05 17.87 C17.55 19.7, 14.54 22.18, 12.14 22.67 C9.73 23.16, 6.74 22.28, 4.61 20.83 C2.48 19.39, 0.06 16.17, -0.67 14 C-1.39 11.83, -0.93 9.81, 0.25 7.82 C1.42 5.82, 4.26 3.11, 6.39 2.02 C8.52 0.93, 11.85 1.37, 13.03 1.28 C14.22 1.19, 13.51 1.28, 13.5 1.48" stroke="#f08c00" stroke-width="4" fill="none"></path></g><g stroke-linecap="round"><g transform="translate(35.151227228357584 128.74844459675933) rotate(0 34.16605503425262 -3.058493349890796)"><path d="M2.12 -1.3 C13.36 -1.97, 54.51 -3.71, 65.71 -4.76 M-0.17 4.17 C12.05 2.73, 59.32 -7.46, 70.68 -9.04" stroke="#f08c00" stroke-width="4" fill="none"></path></g></g><mask></mask><g stroke-linecap="round" transform="translate(237.20294415552053 106.24492903167175) rotate(0 11.09720625688442 11.09720625688442)"><path d="M6.71 0.51 C8.74 -0.83, 12.07 -1.42, 14.3 -0.69 C16.54 0.04, 18.66 2.9, 20.12 4.88 C21.58 6.86, 23.29 9.03, 23.08 11.2 C22.86 13.37, 20.52 16.07, 18.83 17.91 C17.14 19.75, 15.25 21.75, 12.93 22.23 C10.6 22.7, 6.81 22.04, 4.87 20.76 C2.93 19.49, 1.93 16.86, 1.29 14.6 C0.65 12.34, 0.04 9.43, 1.02 7.21 C2.01 4.99, 6.12 2.32, 7.18 1.28 C8.24 0.24, 7.28 1.01, 7.37 0.98 M9.2 1.26 C11 0.78, 13.23 0.52, 15.12 1.33 C17.01 2.15, 19.54 3.8, 20.55 6.15 C21.56 8.51, 21.83 13.22, 21.2 15.46 C20.57 17.71, 18.89 18.32, 16.78 19.63 C14.67 20.94, 11.04 23.62, 8.56 23.33 C6.08 23.05, 3.47 19.67, 1.89 17.93 C0.31 16.2, -0.84 15.38, -0.94 12.94 C-1.05 10.5, -0.29 5.63, 1.26 3.29 C2.81 0.95, 7.01 -0.47, 8.36 -1.09 C9.72 -1.7, 9.24 -0.86, 9.37 -0.41" stroke="#f08c00" stroke-width="4" fill="none"></path></g><g stroke-linecap="round" transform="translate(331.80474644070773 104.01206620043467) rotate(0 11.09720625688442 11.09720625688442)"><path d="M12.79 1.08 C15.07 1.11, 18.66 1.52, 20.22 3.07 C21.77 4.61, 22.3 7.95, 22.14 10.34 C21.97 12.73, 20.61 15.62, 19.25 17.4 C17.9 19.19, 16.17 20.52, 14.01 21.05 C11.85 21.59, 8.58 21.55, 6.32 20.61 C4.06 19.68, 1.55 17.66, 0.44 15.47 C-0.66 13.28, -1.17 9.66, -0.31 7.47 C0.55 5.28, 3.23 3.4, 5.62 2.33 C8.01 1.27, 12.2 1.33, 14.03 1.1 C15.86 0.87, 16.48 0.98, 16.62 0.94 M13.81 0.69 C15.78 1.22, 18.14 2.06, 19.7 4.15 C21.26 6.24, 23.27 10.69, 23.17 13.24 C23.07 15.8, 20.85 17.85, 19.08 19.47 C17.32 21.09, 15.02 22.96, 12.58 22.99 C10.14 23.01, 6.6 21.11, 4.43 19.62 C2.26 18.13, 0.22 16.01, -0.42 14.06 C-1.07 12.11, -0.77 9.96, 0.56 7.95 C1.88 5.93, 5.38 3.18, 7.54 1.99 C9.69 0.8, 12.25 1.28, 13.47 0.8 C14.69 0.33, 14.84 -0.85, 14.87 -0.86" stroke="#f08c00" stroke-width="4" fill="none"></path></g><g stroke-linecap="round" transform="translate(434.7930025656224 105.68773011021585) rotate(0 11.09720625688442 11.09720625688442)"><path d="M12.82 -0.18 C15.03 0.19, 18.54 2.15, 19.95 3.93 C21.37 5.72, 21.34 8.05, 21.29 10.54 C21.24 13.04, 20.9 16.94, 19.68 18.91 C18.45 20.87, 16.45 22.08, 13.94 22.33 C11.43 22.58, 6.81 21.71, 4.63 20.42 C2.45 19.13, 1.47 16.92, 0.87 14.6 C0.28 12.28, 0.19 8.71, 1.07 6.5 C1.94 4.29, 3.57 2.12, 6.12 1.33 C8.67 0.55, 14.36 1.69, 16.38 1.79 C18.4 1.89, 18.31 1.95, 18.25 1.92 M7.28 -0.39 C9.45 -1.22, 11.89 -0.02, 14.15 0.6 C16.41 1.23, 19.45 1.43, 20.87 3.36 C22.28 5.29, 23.09 9.77, 22.63 12.2 C22.17 14.62, 20.07 16.46, 18.1 17.9 C16.14 19.34, 13.25 20.34, 10.85 20.83 C8.46 21.32, 5.31 22.23, 3.72 20.85 C2.13 19.47, 1.86 14.98, 1.33 12.56 C0.8 10.15, -0.16 8.36, 0.52 6.34 C1.21 4.32, 4.49 1.2, 5.43 0.42 C6.37 -0.36, 5.74 1.3, 6.16 1.67" stroke="#f08c00" stroke-width="4" fill="none"></path></g><g stroke-linecap="round" transform="translate(570.1313332982913 106.97701520584815) rotate(0 11.09720625688442 11.09720625688442)"><path d="M8.81 0.44 C11.02 -0.2, 15.08 -0.51, 17.15 0.63 C19.23 1.76, 20.63 4.81, 21.28 7.25 C21.93 9.69, 21.87 12.86, 21.04 15.25 C20.21 17.63, 18.25 20.53, 16.28 21.56 C14.31 22.6, 11.32 21.97, 9.2 21.47 C7.09 20.97, 5.21 20.18, 3.62 18.55 C2.02 16.93, -0.19 14.31, -0.39 11.73 C-0.58 9.15, 0.87 4.89, 2.44 3.09 C4.01 1.29, 7.61 1.4, 9.02 0.94 C10.43 0.47, 10.76 0.21, 10.93 0.32 M7.99 -1.01 C10.29 -1.9, 14.61 -1.05, 16.7 0.34 C18.79 1.73, 19.87 4.75, 20.52 7.32 C21.17 9.89, 21.18 13.53, 20.59 15.76 C19.99 17.99, 18.76 19.74, 16.95 20.72 C15.14 21.7, 12.2 22.08, 9.72 21.64 C7.23 21.21, 3.73 19.94, 2.03 18.12 C0.32 16.3, -0.79 13.12, -0.5 10.73 C-0.21 8.33, 2.04 5.36, 3.78 3.75 C5.51 2.14, 8.97 1.48, 9.92 1.08 C10.86 0.68, 9.63 1.22, 9.43 1.36" stroke="#f08c00" stroke-width="4" fill="none"></path></g><g stroke-linecap="round" transform="translate(711.5053078225005 106.02123603400742) rotate(0 11.09720625688442 11.09720625688442)"><path d="M15.47 1.8 C17.6 2.76, 19.84 4.33, 20.98 6.35 C22.12 8.37, 22.95 11.61, 22.28 13.91 C21.61 16.21, 18.87 18.8, 16.97 20.15 C15.07 21.5, 13.13 22.08, 10.87 22.02 C8.62 21.96, 5.18 21.42, 3.46 19.82 C1.74 18.21, 0.95 14.83, 0.57 12.38 C0.19 9.92, 0.11 6.97, 1.18 5.1 C2.25 3.23, 4.44 1.81, 6.98 1.17 C9.51 0.53, 14.48 1.06, 16.37 1.28 C18.26 1.5, 18.45 2.36, 18.33 2.48 M14.28 -0.48 C16.52 -0.17, 17.87 2.42, 19.2 4.7 C20.54 6.98, 22.62 10.74, 22.29 13.19 C21.96 15.65, 19 18.04, 17.21 19.42 C15.41 20.8, 13.9 21.36, 11.52 21.45 C9.15 21.55, 4.9 21.32, 2.99 19.99 C1.07 18.65, 0.49 15.61, 0.02 13.43 C-0.45 11.25, -1.2 8.76, 0.18 6.9 C1.55 5.04, 6.02 3.42, 8.25 2.28 C10.48 1.14, 12.76 0.39, 13.55 0.05 C14.35 -0.29, 12.7 -0.05, 13.01 0.24" stroke="#f08c00" stroke-width="4" fill="none"></path></g><g stroke-linecap="round"><g transform="translate(129.5700079700007 124.79924640162153) rotate(0 66.20295944527663 -49.903874206330784)"><path d="M-0.29 -1.6 C21.81 -17.87, 111.37 -80.85, 133.81 -97.44 M-3.89 3.7 C17.85 -13.33, 109.42 -84.09, 132.34 -101.17" stroke="#1971c2" stroke-width="4" fill="none"></path></g></g><mask></mask><g stroke-linecap="round" transform="translate(262.80562452462027 10) rotate(0 11.09720625688442 11.09720625688442)"><path d="M13.85 -0.3 C16.04 0.09, 19.27 2.89, 20.71 4.83 C22.16 6.77, 22.95 9.12, 22.52 11.33 C22.08 13.54, 19.95 16.24, 18.1 18.09 C16.26 19.94, 13.51 22.13, 11.44 22.41 C9.37 22.69, 7.53 21.03, 5.66 19.78 C3.78 18.53, 0.82 17.27, 0.2 14.91 C-0.43 12.55, 0.81 7.8, 1.91 5.62 C3 3.43, 4.28 2.59, 6.77 1.8 C9.26 1, 15.11 0.7, 16.85 0.85 C18.59 1, 17.26 2.38, 17.21 2.71 M14.06 0.59 C15.99 1.35, 18.64 4.82, 19.79 6.99 C20.94 9.15, 21.17 11.3, 20.95 13.58 C20.72 15.86, 20.28 19.01, 18.45 20.66 C16.62 22.31, 12.29 23.47, 9.98 23.47 C7.67 23.47, 6.14 22.42, 4.58 20.67 C3.02 18.92, 0.94 15.32, 0.62 12.97 C0.29 10.61, 1.74 8.59, 2.64 6.52 C3.54 4.46, 3.84 1.36, 6.04 0.59 C8.24 -0.18, 14.26 1.67, 15.82 1.88 C17.39 2.09, 15.6 1.87, 15.45 1.86" stroke="#1971c2" stroke-width="4" fill="none"></path></g><g stroke-linecap="round"><g transform="translate(285.9761519372905 22.78303803019662) rotate(0 81.72928705592585 -0.5755010758111894)"><path d="M-1.55 -1.14 C25.74 -1.25, 138.28 -0.19, 165.88 -0.08 M2.8 -4.22 C29.74 -5.26, 138.33 -5.72, 164.95 -4.5" stroke="#1971c2" stroke-width="4" fill="none"></path></g></g><mask></mask><g stroke-linecap="round" transform="translate(451.94415476840095 12.293870012418665) rotate(0 11.09720625688442 11.09720625688442)"><path d="M15.62 0.53 C17.87 1.32, 20.38 3.81, 21.43 6.12 C22.48 8.43, 22.49 12.03, 21.92 14.38 C21.35 16.74, 19.8 18.89, 18 20.24 C16.21 21.6, 13.68 22.56, 11.15 22.54 C8.62 22.52, 4.82 21.7, 2.82 20.12 C0.82 18.55, -0.68 15.65, -0.85 13.09 C-1.02 10.54, 0.41 6.8, 1.79 4.81 C3.16 2.81, 4.87 1.63, 7.39 1.11 C9.9 0.59, 15.52 1.54, 16.89 1.69 C18.25 1.85, 15.85 2.12, 15.6 2.04 M8.69 1.73 C10.74 0.63, 14.25 -0.74, 16.08 0.24 C17.92 1.22, 18.94 5.51, 19.71 7.62 C20.49 9.72, 21.18 10.84, 20.73 12.87 C20.27 14.9, 18.73 18.25, 16.98 19.78 C15.24 21.3, 12.53 21.98, 10.26 22.01 C7.99 22.04, 5.15 21.52, 3.35 19.98 C1.56 18.43, -0.25 15.44, -0.49 12.75 C-0.73 10.06, 0.49 5.93, 1.92 3.84 C3.35 1.74, 6.79 0.54, 8.07 0.18 C9.36 -0.19, 9.69 1.59, 9.63 1.64" stroke="#1971c2" stroke-width="4" fill="none"></path></g><g stroke-linecap="round"><g transform="translate(212.27540992482773 239.09416677214267) rotate(0 -44.0065133588015 -52.05336055661974)"><path d="M-2.09 0.73 C-16.63 -16.8, -74.81 -89.07, -89.03 -106.5 M1.98 -1.35 C-12.87 -18.48, -76.68 -87.62, -91.82 -104.17" stroke="#2f9e44" stroke-width="4" fill="none"></path></g></g><mask></mask><g stroke-linecap="round" transform="translate(214.27237832216315 235.00668563299314) rotate(0 11.09720625688442 11.09720625688442)"><path d="M5.46 1.8 C7.38 0.6, 10.21 -0.91, 12.56 -0.62 C14.91 -0.33, 17.83 1.64, 19.54 3.55 C21.24 5.45, 22.88 8.28, 22.77 10.81 C22.67 13.34, 20.69 16.89, 18.91 18.72 C17.12 20.55, 14.23 21.36, 12.06 21.8 C9.9 22.23, 7.77 22.55, 5.9 21.34 C4.02 20.13, 1.62 17.03, 0.82 14.55 C0.01 12.08, 0.05 8.78, 1.06 6.5 C2.07 4.21, 6.02 1.82, 6.9 0.85 C7.77 -0.13, 6.3 0.34, 6.29 0.64 M11.06 -1.44 C13.35 -1.33, 15.8 1.09, 17.66 2.92 C19.52 4.75, 21.82 7.24, 22.22 9.52 C22.62 11.8, 21.13 14.5, 20.05 16.57 C18.97 18.65, 18.2 20.91, 15.76 21.95 C13.32 22.99, 7.59 24.03, 5.4 22.83 C3.21 21.62, 3.28 17.29, 2.62 14.73 C1.97 12.18, 0.97 9.76, 1.46 7.5 C1.95 5.23, 4.06 2.35, 5.58 1.16 C7.1 -0.03, 9.79 0.68, 10.56 0.36 C11.33 0.03, 10.11 -1.03, 10.21 -0.76" stroke="#2f9e44" stroke-width="4" fill="none"></path></g><g stroke-linecap="round"><g transform="translate(242.40075599217062 247.56196352011193) rotate(0 81.72928705592585 -0.5755010758111894)"><path d="M1.8 2.46 C28.79 2.12, 135.05 -0.19, 162.44 -1.02 M-0.66 1.32 C25.82 1.39, 131.9 2.93, 159.65 2.68" stroke="#2f9e44" stroke-width="4" fill="none"></path></g></g><mask></mask><g stroke-linecap="round" transform="translate(411.7200866428416 235.46627306455866) rotate(0 11.09720625688442 11.09720625688442)"><path d="M10.53 0.5 C12.72 0.4, 16.25 2.14, 18.2 3.54 C20.15 4.95, 21.95 6.82, 22.24 8.91 C22.53 11, 21.29 13.96, 19.94 16.08 C18.59 18.21, 16.26 20.74, 14.12 21.68 C11.98 22.63, 9.16 22.78, 7.09 21.75 C5.02 20.72, 2.88 17.8, 1.68 15.49 C0.47 13.18, -0.5 9.92, -0.13 7.91 C0.24 5.89, 1.75 4.58, 3.9 3.39 C6.04 2.21, 11.25 1.35, 12.74 0.8 C14.23 0.25, 13.12 0.08, 12.84 0.1 M9.64 -0.83 C12.21 -1.3, 15.59 0.14, 17.38 1.4 C19.17 2.66, 19.72 4.59, 20.39 6.71 C21.05 8.83, 21.96 11.75, 21.38 14.1 C20.8 16.46, 18.72 19.6, 16.91 20.85 C15.11 22.09, 12.72 21.86, 10.55 21.56 C8.37 21.27, 5.81 20.46, 3.88 19.07 C1.95 17.68, -0.52 15.79, -1.02 13.23 C-1.51 10.67, -0.77 5.77, 0.92 3.73 C2.61 1.68, 7.89 1.52, 9.13 0.98 C10.37 0.43, 8.54 0.47, 8.37 0.46" stroke="#2f9e44" stroke-width="4" fill="none"></path></g><g stroke-linecap="round"><g transform="translate(484.8717640246723 317.0288071585901) rotate(0 -29.545777846119563 -30.906237986463566)"><path d="M-2.1 0.94 C-12.11 -9.9, -49.56 -52.14, -58.88 -62.97 M1.96 -1.02 C-8.52 -11.66, -50.8 -49.78, -61 -59.96" stroke="#e03131" stroke-width="4" fill="none"></path></g></g><mask></mask><g stroke-linecap="round"><g transform="translate(436.7655680904859 243.5029523988469) rotate(0 81.72928705592585 -0.5755010758111894)"><path d="M-0.22 0.5 C27.38 -0.25, 136.56 -1.58, 163.56 -2.01 M-3.78 -1.69 C23.64 -0.82, 132.8 0.78, 161.38 1.16" stroke="#2f9e44" stroke-width="4" fill="none"></path></g></g><mask></mask><g stroke-linecap="round" transform="translate(604.7142707372827 231.6553578134326) rotate(0 11.09720625688442 11.09720625688442)"><path d="M13.22 -0.15 C15.47 -0.03, 17.43 1.44, 19.02 3.18 C20.61 4.91, 22.84 7.89, 22.76 10.26 C22.67 12.63, 20.08 15.39, 18.52 17.41 C16.95 19.42, 15.55 21.9, 13.37 22.34 C11.19 22.77, 7.47 21.44, 5.44 20.03 C3.41 18.61, 2.02 15.92, 1.18 13.83 C0.34 11.75, -0.39 9.45, 0.39 7.52 C1.17 5.59, 3.64 3.55, 5.89 2.25 C8.13 0.95, 12.17 -0.3, 13.83 -0.27 C15.49 -0.24, 15.62 2.17, 15.84 2.44 M8.63 1.92 C10.73 1.27, 13.7 -0.04, 15.81 0.63 C17.91 1.31, 20.22 4.13, 21.24 5.99 C22.26 7.85, 22.29 9.47, 21.94 11.79 C21.59 14.1, 21.11 18.2, 19.14 19.88 C17.17 21.56, 12.85 21.92, 10.11 21.84 C7.37 21.77, 4.5 20.72, 2.71 19.45 C0.91 18.18, -0.52 16.64, -0.67 14.22 C-0.81 11.81, 0.36 7.45, 1.83 4.94 C3.29 2.42, 7.01 -0.16, 8.11 -0.86 C9.21 -1.56, 8.33 0.22, 8.45 0.74" stroke="#2f9e44" stroke-width="4" fill="none"></path></g><g stroke-linecap="round" transform="translate(483.13509293371 311.4446165077916) rotate(0 11.09720625688442 11.09720625688442)"><path d="M15.62 0.89 C17.93 1.49, 19.32 3.88, 20.55 6 C21.78 8.12, 23.31 11.23, 23 13.59 C22.69 15.95, 20.56 18.73, 18.7 20.15 C16.83 21.57, 14.18 22.15, 11.8 22.12 C9.43 22.09, 6.5 21.4, 4.46 19.97 C2.41 18.53, 0.04 15.83, -0.48 13.52 C-1.01 11.21, 0.04 8.4, 1.3 6.11 C2.55 3.82, 4.47 0.65, 7.03 -0.2 C9.6 -1.06, 15.06 0.61, 16.67 0.97 C18.27 1.33, 16.81 1.91, 16.68 1.95 M16.52 2.51 C18.45 3.32, 19.12 5.01, 20.13 6.78 C21.14 8.56, 23.07 10.88, 22.59 13.16 C22.12 15.44, 19.45 18.84, 17.28 20.47 C15.11 22.09, 12.14 23.34, 9.58 22.91 C7.02 22.48, 3.66 19.58, 1.91 17.9 C0.17 16.21, -0.91 15.18, -0.89 12.81 C-0.87 10.44, 0.55 5.63, 2.02 3.69 C3.48 1.75, 5.73 1.39, 7.88 1.17 C10.03 0.94, 13.46 2.06, 14.91 2.36 C16.37 2.66, 16.54 3.17, 16.61 2.96" stroke="#e03131" stroke-width="4" fill="none"></path></g><g stroke-linecap="round"><g transform="translate(508.4490059785521 327.9084211359277) rotate(0 39.96783796459749 1.0371220800820993)"><path d="M0.31 -0.39 C13.4 -0.12, 64.58 3.58, 77.75 3.81 M-2.96 -3.06 C11.07 -3.8, 69.61 -1.35, 82.96 -0.26" stroke="#e03131" stroke-width="4" fill="none"></path></g></g><mask></mask><g stroke-linecap="round" transform="translate(593.196114930247 318.70853821378205) rotate(0 11.09720625688442 11.09720625688442)"><path d="M14.33 0.38 C16.65 1.12, 19.7 3.13, 21.03 5.36 C22.35 7.6, 22.77 11.43, 22.31 13.78 C21.85 16.13, 20.29 18.18, 18.27 19.45 C16.26 20.73, 12.58 21.32, 10.21 21.43 C7.84 21.54, 5.9 21.61, 4.07 20.12 C2.24 18.63, -0.3 14.81, -0.78 12.51 C-1.26 10.21, -0.13 8.19, 1.19 6.3 C2.52 4.4, 4.57 1.72, 7.17 1.14 C9.78 0.55, 14.85 2.45, 16.82 2.78 C18.79 3.1, 19.22 3.23, 19.02 3.08 M7.29 1.07 C9.09 0.47, 12.96 1.15, 15.34 2.18 C17.73 3.21, 20.41 5.25, 21.6 7.25 C22.79 9.25, 23.38 11.77, 22.5 14.19 C21.62 16.61, 18.35 20.36, 16.31 21.79 C14.28 23.21, 12.56 23.46, 10.27 22.76 C7.97 22.05, 4.3 19.32, 2.54 17.58 C0.78 15.84, -0.08 14.69, -0.3 12.31 C-0.52 9.93, -0.32 5.33, 1.22 3.3 C2.76 1.27, 7.64 0.72, 8.94 0.12 C10.23 -0.48, 9.1 -0.65, 9.01 -0.32" stroke="#e03131" stroke-width="4" fill="none"></path></g><g stroke-linecap="round"><g transform="translate(132.80338857261108 114.5378385269214) rotate(0 50.79254547887183 2.452488683489719)"><path d="M-1.12 0.51 C15.96 1.33, 86.93 3.68, 104.06 4.64 M3.47 -1.68 C20.25 -0.37, 87.09 7.59, 103.16 8.13" stroke="#f08c00" stroke-width="4" fill="none"></path></g></g><mask></mask><g stroke-linecap="round"><g transform="translate(260.29619580536064 114.10672111323947) rotate(0 34.22706221543376 1.9135919163877588)"><path d="M-0.18 -0.46 C11.71 -0.58, 58.92 0.92, 70.61 1.43 M-3.72 -3.18 C8.05 -3.23, 57.42 2.39, 69.54 3.76" stroke="#f08c00" stroke-width="4" fill="none"></path></g></g><mask></mask><g stroke-linecap="round"><g transform="translate(359.9778627102469 114.75339723376237) rotate(0 35.82748393509064 0.9944170532553471)"><path d="M1.55 1.22 C14.23 1.31, 61.59 2.85, 73.51 3.1 M-1.06 -0.59 C11.65 -0.15, 60.1 -2.44, 72.28 -1.31" stroke="#f08c00" stroke-width="4" fill="none"></path></g></g><mask></mask><g stroke-linecap="round"><g transform="translate(459.6676639059574 113.59426079131754) rotate(0 54.43874134080943 2.0295055606320602)"><path d="M-2.23 2.32 C16.38 2.86, 91.94 2.51, 110.77 3.21 M1.75 1.11 C20.24 2.06, 91.53 6.18, 109.55 6.38" stroke="#f08c00" stroke-width="4" fill="none"></path></g></g><mask></mask><g stroke-linecap="round"><g transform="translate(596.3806897879126 116.25010674541136) rotate(0 56.710242053461116 1.2404793506866554)"><path d="M-2.12 2.14 C16.61 2.73, 91.7 0.45, 110.85 0.87 M1.92 0.84 C21.63 2.01, 97.74 3.71, 115.85 3.63" stroke="#f08c00" stroke-width="4" fill="none"></path></g></g><mask></mask></svg>