<svg version="1.1" xmlns="http://www.w3.org/2000/svg" viewBox="0 0 1022.0918246342258 569.5648895176855" width="2044.1836492684515" height="1139.129779035371" filter="invert(93%) hue-rotate(180deg)">
  <!-- svg-source:excalidraw -->
  
  <defs>
    <style class="style-fonts">
      @font-face {
        font-family: "Virgil";
        src: url("https://excalidraw.com/Virgil.woff2");
      }
      @font-face {
        font-family: "Cascadia";
        src: url("https://excalidraw.com/Cascadia.woff2");
      }
      @font-face {
        font-family: "Assistant";
        src: url("https://excalidraw.com/Assistant-Regular.woff2");
      }
    </style>
    
  </defs>
  <g stroke-linecap="round" transform="translate(10 10) rotate(0 214.94253431077868 274.78244475884276)"><path d="M32 0 C120.8 2.15, 215.68 2.48, 397.89 0 M32 0 C160.44 2.07, 291.36 1.39, 397.89 0 M397.89 0 C421.95 -0.9, 429.23 10.34, 429.89 32 M397.89 0 C419.48 0.94, 425.32 7.57, 429.89 32 M429.89 32 C434.54 177.82, 432.85 321.12, 429.89 517.56 M429.89 32 C428.12 211.71, 427.88 390.47, 429.89 517.56 M429.89 517.56 C430.05 538.74, 419.63 549.87, 397.89 549.56 M429.89 517.56 C429.61 535.22, 420 552.36, 397.89 549.56 M397.89 549.56 C272.85 546.68, 142.77 551.03, 32 549.56 M397.89 549.56 C297.09 553.24, 195.8 551.93, 32 549.56 M32 549.56 C11.92 550.75, 3.17 536.65, 0 517.56 M32 549.56 C7.56 552.96, -3.25 535.33, 0 517.56 M0 517.56 C-1.68 345.42, -0.46 168.46, 0 32 M0 517.56 C3.91 384.55, 3.43 250.24, 0 32 M0 32 C-2.29 8.67, 13.76 -3.72, 32 0 M0 32 C-0.22 7.35, 14.96 0.5, 32 0" stroke="#f08c00" stroke-width="4" fill="none"></path></g><g transform="translate(58.65932771023131 49.548921987153335) rotate(0 151.772419581799 25.651114689989754)"><text x="0" y="35.9526023494894" font-family="Virgil, Segoe UI Emoji" font-size="41.04178350398334px" fill="#f08c00" text-anchor="start" style="white-space: pre;" direction="ltr" dominant-baseline="alphabetic">&lt;&lt;&lt;&lt;&lt;&lt;&lt; HEAD</text></g><g transform="translate(63.17792626306232 125.3645796139017) rotate(0 152.9970703124999 25.651114689989754)"><text x="0" y="35.9526023494894" font-family="Virgil, Segoe UI Emoji" font-size="41.04178350398334px" fill="#f08c00" text-anchor="start" style="white-space: pre;" direction="ltr" dominant-baseline="alphabetic">_ _ _ _ _ _</text></g><g transform="translate(59.90794135174269 183.43121466229422) rotate(0 152.9970703124999 25.651114689989754)"><text x="0" y="35.9526023494894" font-family="Virgil, Segoe UI Emoji" font-size="41.04178350398334px" fill="#f08c00" text-anchor="start" style="white-space: pre;" direction="ltr" dominant-baseline="alphabetic">_ _ _ _ _ _</text></g><g transform="translate(59.049773669791875 231.37065763458577) rotate(0 152.9970703125001 25.651114689989754)"><text x="0" y="35.9526023494894" font-family="Virgil, Segoe UI Emoji" font-size="41.04178350398334px" fill="#f08c00" text-anchor="start" style="white-space: pre;" direction="ltr" dominant-baseline="alphabetic">_ _ _ _ _ _</text></g><g transform="translate(52.53827386503758 301.03679139825636) rotate(0 151.93002319335926 25.651114689989754)"><text x="0" y="35.9526023494894" font-family="Virgil, Segoe UI Emoji" font-size="41.04178350398334px" fill="#2f9e44" text-anchor="start" style="white-space: pre;" direction="ltr" dominant-baseline="alphabetic">============</text></g><g transform="translate(62.592257323721014 386.398039307177) rotate(0 152.9970703124999 25.651114689989754)"><text x="0" y="35.9526023494894" font-family="Virgil, Segoe UI Emoji" font-size="41.04178350398334px" fill="#2f9e44" text-anchor="start" style="white-space: pre;" direction="ltr" dominant-baseline="alphabetic">_ _ _ _ _ _</text></g><g transform="translate(54.91348678569716 338.04781464826465) rotate(0 152.9970703124999 25.651114689989754)"><text x="0" y="35.9526023494894" font-family="Virgil, Segoe UI Emoji" font-size="41.04178350398334px" fill="#2f9e44" text-anchor="start" style="white-space: pre;" direction="ltr" dominant-baseline="alphabetic">_ _ _ _ _ _</text></g><g transform="translate(58.525111911632166 472.9875651305492) rotate(0 146.71792602539074 25.651114689989754)"><text x="0" y="35.9526023494894" font-family="Virgil, Segoe UI Emoji" font-size="41.04178350398334px" fill="#2f9e44" text-anchor="start" style="white-space: pre;" direction="ltr" dominant-baseline="alphabetic">&gt;&gt;&gt;&gt;&gt;&gt;&gt; bug-fix</text></g><g stroke-linecap="round"><g transform="translate(392.6045032060247 181.3854405200127) rotate(0 124.05606935953483 1.1367671426792185)"><path d="M0.63 -2.4 C41.92 -2.39, 205.07 0.18, 246.2 0.51 M-2.48 2.47 C39.85 2.77, 210.27 3.39, 251.57 3.18" stroke="#f08c00" stroke-width="4" fill="none"></path></g><g transform="translate(392.6045032060247 181.3854405200127) rotate(0 124.05606935953483 1.1367671426792185)"><path d="M226.36 10.36 C232.56 9.11, 237.64 8.4, 249.69 4.13 M227.62 11.71 C235.14 8.8, 242.27 7.81, 251.41 3.11" stroke="#f08c00" stroke-width="4" fill="none"></path></g><g transform="translate(392.6045032060247 181.3854405200127) rotate(0 124.05606935953483 1.1367671426792185)"><path d="M226.36 -6.74 C232.59 -3.8, 237.67 -0.32, 249.69 4.13 M227.62 -5.39 C235.04 -3.52, 242.16 0.28, 251.41 3.11" stroke="#f08c00" stroke-width="4" fill="none"></path></g></g><mask></mask><g stroke-linecap="round"><g transform="translate(401.18211288012026 410.0118855697647) rotate(0 92.41367805348341 -0.20742441601623796)"><path d="M1.57 0.81 C32.27 0.54, 152.29 -1.12, 182.88 -1.5 M-1.02 -1.22 C30.69 -1.12, 157.48 1.16, 188.22 1.54" stroke="#2f9e44" stroke-width="4" fill="none"></path></g><g transform="translate(401.18211288012026 410.0118855697647) rotate(0 92.41367805348341 -0.20742441601623796)"><path d="M165.18 8.33 C169.76 7.71, 175.74 3.83, 187.46 -0.28 M165.08 9.3 C168.74 7.71, 173.98 7.28, 189.2 0.97" stroke="#2f9e44" stroke-width="4" fill="none"></path></g><g transform="translate(401.18211288012026 410.0118855697647) rotate(0 92.41367805348341 -0.20742441601623796)"><path d="M165.44 -8.76 C169.97 -5.09, 175.88 -4.66, 187.46 -0.28 M165.34 -7.8 C169.09 -5.62, 174.28 -2.28, 189.2 0.97" stroke="#2f9e44" stroke-width="4" fill="none"></path></g></g><mask></mask><g transform="translate(657.9084655819943 160.6999389541288) rotate(0 101.532958984375 41.76884053404228)"><text x="0" y="29.271603446256822" font-family="Virgil, Segoe UI Emoji" font-size="33.41507242723382px" fill="#f08c00" text-anchor="start" style="white-space: pre;" direction="ltr" dominant-baseline="alphabetic">Branch that</text><text x="0" y="71.04044398029909" font-family="Virgil, Segoe UI Emoji" font-size="33.41507242723382px" fill="#f08c00" text-anchor="start" style="white-space: pre;" direction="ltr" dominant-baseline="alphabetic"> you are on</text></g><g transform="translate(613.0763217045383 381.37918186865863) rotate(0 199.50775146484375 41.76884053404228)"><text x="0" y="29.271603446256822" font-family="Virgil, Segoe UI Emoji" font-size="33.41507242723382px" fill="#f08c00" text-anchor="start" style="white-space: pre;" direction="ltr" dominant-baseline="alphabetic">Conflict that came from</text><text x="0" y="71.04044398029909" font-family="Virgil, Segoe UI Emoji" font-size="33.41507242723382px" fill="#f08c00" text-anchor="start" style="white-space: pre;" direction="ltr" dominant-baseline="alphabetic">another branch</text></g></svg>